<svg xmlns="http://www.w3.org/2000/svg" width="1600" height="960" viewBox="0 0 1600 960" role="img" aria-labelledby="title desc">
  <title id="title">OpenBao non-production database access architecture</title>
  <desc id="desc">An engineer authenticates with Microsoft Entra ID, requests a short-lived PostgreSQL credential from OpenBao running in central-shared-nonprod EKS, OpenBao stores its state in a dedicated Aurora backend, and the engineer connects directly to a generic non-production Aurora PostgreSQL target over the approved private network path. Terraform owns stable roles and grants.</desc>
  <defs>
    <marker id="arrow" markerWidth="12" markerHeight="12" refX="10" refY="6" orient="auto">
      <path d="M0,0 L12,6 L0,12 z" fill="#334155"/>
    </marker>
    <marker id="arrowSoft" markerWidth="12" markerHeight="12" refX="10" refY="6" orient="auto">
      <path d="M0,0 L12,6 L0,12 z" fill="#64748b"/>
    </marker>
    <style>
      .title { font: 700 30px Arial, sans-serif; fill: #0f172a; }
      .subtitle { font: 500 15px Arial, sans-serif; fill: #475467; }
      .section { font: 700 15px Arial, sans-serif; fill: #667085; letter-spacing: 0.04em; }
      .label { font: 700 18px Arial, sans-serif; fill: #101828; }
      .small { font: 500 14px Arial, sans-serif; fill: #344054; }
      .tiny { font: 500 12px Arial, sans-serif; fill: #475467; }
      .box { fill: #ffffff; stroke: #94a3b8; stroke-width: 2; rx: 18; }
      .blue { fill: #eff6ff; stroke: #60a5fa; }
      .purple { fill: #f5f3ff; stroke: #a78bfa; }
      .green { fill: #ecfdf3; stroke: #4ade80; }
      .amber { fill: #fffbeb; stroke: #f59e0b; }
      .gray { fill: #f8fafc; stroke: #cbd5e1; }
      .outer { fill: none; stroke: #94a3b8; stroke-width: 2.5; stroke-dasharray: 10 8; }
      .line { fill: none; stroke: #334155; stroke-width: 3; marker-end: url(#arrow); }
      .line2 { fill: none; stroke: #64748b; stroke-width: 3; marker-end: url(#arrowSoft); }
      .note { fill: #f8fafc; stroke: #cbd5e1; stroke-width: 1.5; rx: 14; }
      .pill { fill: #ffffff; stroke: #cbd5e1; stroke-width: 1.4; rx: 999; }
      .num { font: 700 15px Arial, sans-serif; fill: #0f172a; }
    </style>
  </defs>

  <rect x="0" y="0" width="1600" height="960" fill="#f8fafc"/>

  <text x="70" y="70" class="title">OpenBao Database Access Architecture</text>
  <text x="70" y="100" class="subtitle">Static non-production system flow. OpenBao brokers short-lived PostgreSQL credentials; Terraform owns stable DB structure.</text>

  <text x="70" y="168" class="section">IDENTITY</text>
  <rect x="80" y="190" width="260" height="150" class="box blue"/>
  <text x="110" y="232" class="label">Engineer</text>
  <text x="110" y="262" class="small">DBeaver Community</text>
  <text x="110" y="288" class="small">psql</text>
  <text x="110" y="316" class="tiny">Uses issued credentials directly</text>

  <rect x="80" y="365" width="260" height="140" class="box purple"/>
  <text x="110" y="407" class="label">Microsoft Entra ID</text>
  <text x="110" y="437" class="small">OIDC + group claims</text>
  <text x="110" y="463" class="tiny">Identity source for policy mapping</text>

  <text x="408" y="168" class="section">CENTRAL-SHARED-NONPROD</text>
  <rect x="410" y="190" width="520" height="470" class="outer" rx="26"/>
  <text x="436" y="223" class="label">AWS boundary</text>

  <rect x="445" y="255" width="455" height="245" class="box gray"/>
  <text x="475" y="295" class="label">OpenBao on EKS</text>
  <text x="475" y="324" class="tiny">Helm chart via existing GitOps pattern</text>
  <rect x="475" y="352" width="160" height="76" class="pill" rx="18"/>
  <text x="500" y="385" class="small">3 replicas</text>
  <text x="500" y="407" class="tiny">HA, not a single pod</text>
  <rect x="650" y="352" width="220" height="76" class="pill" rx="18"/>
  <text x="675" y="385" class="small">KMS auto-unseal</text>
  <text x="675" y="407" class="tiny">No manual unseal</text>
  <rect x="475" y="440" width="160" height="42" class="pill" rx="18"/>
  <text x="503" y="467" class="small">TLS ingress</text>
  <rect x="650" y="440" width="220" height="42" class="pill" rx="18"/>
  <text x="674" y="467" class="small">Audit + metrics</text>

  <rect x="445" y="520" width="455" height="110" class="box gray"/>
  <text x="475" y="560" class="label">OpenBao control plane</text>
  <text x="475" y="587" class="small">Issue lease, renew, revoke</text>
  <text x="475" y="612" class="tiny">Credential broker, not a PostgreSQL proxy</text>

  <rect x="995" y="255" width="250" height="155" class="box amber"/>
  <text x="1025" y="295" class="label">Dedicated Aurora</text>
  <text x="1025" y="325" class="small">OpenBao storage backend</text>
  <text x="1025" y="352" class="tiny">State, leases, policy data</text>

  <rect x="995" y="435" width="250" height="110" class="box gray"/>
  <text x="1025" y="475" class="label">Audit storage</text>
  <text x="1025" y="502" class="small">Retention for operations</text>
  <text x="1025" y="528" class="tiny">Separate from credential backend</text>

  <text x="1270" y="168" class="section">GENERIC NONPROD ESTATE</text>
  <rect x="1270" y="190" width="250" height="280" class="box blue"/>
  <text x="1300" y="232" class="label">Aurora PostgreSQL</text>
  <text x="1300" y="262" class="small">Pilot target</text>
  <text x="1300" y="290" class="tiny">OpenBao-issued credentials only</text>
  <rect x="1300" y="320" width="190" height="46" class="pill" rx="23"/>
  <text x="1326" y="349" class="small">Stable NOLOGIN roles</text>
  <rect x="1300" y="375" width="190" height="46" class="pill" rx="23"/>
  <text x="1326" y="404" class="small">Ephemeral LOGIN role</text>
  <rect x="1300" y="430" width="190" height="30" class="pill" rx="15"/>
  <text x="1320" y="451" class="tiny">Connect over approved private path</text>

  <text x="1270" y="515" class="section">RESPONSIBILITY</text>
  <rect x="1270" y="540" width="250" height="120" class="box gray"/>
  <text x="1298" y="578" class="small">Terraform</text>
  <text x="1298" y="606" class="tiny">Stable roles, grants, schemas</text>
  <text x="1298" y="632" class="tiny">OpenBao handles credentials</text>

  <circle cx="360" cy="262" r="18" fill="#e0f2fe" stroke="#60a5fa" stroke-width="2"/>
  <text x="354" y="268" class="num">1</text>
  <path d="M340 262 C380 262, 390 262, 445 262" class="line"/>
  <text x="360" y="245" class="tiny">OIDC login</text>

  <circle cx="360" cy="438" r="18" fill="#ede9fe" stroke="#a78bfa" stroke-width="2"/>
  <text x="354" y="444" class="num">2</text>
  <path d="M340 438 C390 438, 405 405, 445 390" class="line2"/>
  <text x="350" y="420" class="tiny">claims + group policy</text>

  <circle cx="910" cy="330" r="18" fill="#dcfce7" stroke="#4ade80" stroke-width="2"/>
  <text x="904" y="336" class="num">3</text>
  <path d="M900 330 C930 330, 945 330, 995 330" class="line"/>
  <text x="860" y="312" class="tiny">backend state</text>

  <circle cx="910" cy="482" r="18" fill="#fef3c7" stroke="#f59e0b" stroke-width="2"/>
  <text x="904" y="488" class="num">4</text>
  <path d="M900 482 C930 482, 945 482, 995 482" class="line"/>
  <text x="846" y="463" class="tiny">audit and retention</text>

  <circle cx="910" cy="575" r="18" fill="#fef3c7" stroke="#f59e0b" stroke-width="2"/>
  <text x="904" y="581" class="num">5</text>
  <path d="M900 575 C1030 575, 1110 515, 1270 350" class="line2"/>
  <text x="920" y="554" class="tiny">issue short-lived creds</text>

  <circle cx="360" cy="710" r="18" fill="#e0f2fe" stroke="#60a5fa" stroke-width="2"/>
  <text x="354" y="716" class="num">6</text>
  <path d="M340 710 C540 710, 980 710, 1300 452" class="line"/>
  <text x="640" y="690" class="tiny">connect with issued credential</text>

  <rect x="80" y="740" width="1440" height="78" class="note"/>
  <text x="110" y="770" class="small">Flow: engineer authenticates with Entra, OpenBao issues a lease-backed PostgreSQL credential, and the client connects directly to Aurora over the approved private path.</text>
  <text x="110" y="795" class="tiny">This keeps human access short-lived and auditable while Terraform keeps stable database structure out of the runtime path.</text>
</svg>