<?xml version="1.0" encoding="UTF-8"?>
<!DOCTYPE svg PUBLIC "-//W3C//DTD SVG 1.1//EN" "http://www.w3.org/Graphics/SVG/1.1/DTD/svg11.dtd">
<svg xmlns="http://www.w3.org/2000/svg" style="background: transparent; background-color: transparent; color-scheme: light dark;" xmlns:xlink="http://www.w3.org/1999/xlink" version="1.1" width="1092px" height="729px" viewBox="0 0 1092 729" id="ge-svg-WLIkK-WxJeau557tT3QP"><style type="text/css">@supports (color: light-dark(#000, #fff)) { #ge-svg-WLIkK-WxJeau557tT3QP { --ge-adaptive-bg: light-dark(#ffffff, var(--ge-dark-color, #121212)); } }</style><defs/><g><g data-cell-id="0"><g data-cell-id="1"><g data-cell-id="t2"><g transform="translate(0.5,0.5)"><rect x="0" y="0" width="500" height="40" fill="none" stroke="none" pointer-events="all"/></g><g><g><switch><foreignObject style="overflow: visible; text-align: left;" pointer-events="none" width="100%" height="100%" requiredFeatures="http://www.w3.org/TR/SVG11/feature#Extensibility"><div xmlns="http://www.w3.org/1999/xhtml" style="display: flex; align-items: unsafe center; justify-content: unsafe flex-start; width: 1px; height: 1px; padding-top: 20px; margin-left: 2px;"><div style="box-sizing: border-box; font-size: 0; text-align: left; color: #111827; "><div style="display: inline-block; font-size: 28px; font-family: Arial; color: light-dark(#111827, #d4dae7); line-height: 1.2; pointer-events: all; font-weight: bold; white-space: nowrap; ">HA deployment</div></div></div></foreignObject><text x="2" y="28" fill="#111827" font-family="Arial" font-size="28px" font-weight="bold">HA deployment</text></switch></g></g></g><g data-cell-id="s2"><g transform="translate(0.5,0.5)"><rect x="0" y="43" width="700" height="28" fill="none" stroke="none" pointer-events="all"/></g><g><g><switch><foreignObject style="overflow: visible; text-align: left;" pointer-events="none" width="100%" height="100%" requiredFeatures="http://www.w3.org/TR/SVG11/feature#Extensibility"><div xmlns="http://www.w3.org/1999/xhtml" style="display: flex; align-items: unsafe center; justify-content: unsafe flex-start; width: 1px; height: 1px; padding-top: 57px; margin-left: 2px;"><div style="box-sizing: border-box; font-size: 0; text-align: left; color: #4b5563; "><div style="display: inline-block; font-size: 16px; font-family: Arial; color: light-dark(#4b5563, #9da6b2); line-height: 1.2; pointer-events: all; white-space: nowrap; ">Non-production OpenBao platform and its critical dependencies</div></div></div></foreignObject><text x="2" y="62" fill="#4b5563" font-family="Arial" font-size="16px">Non-production OpenBao platform and its critical dependencies</text></switch></g></g></g><g data-cell-id="haedge1"><g><path d="M 230 290 L 279.76 290" fill="none" stroke="#2563eb" stroke-width="2" stroke-miterlimit="10" pointer-events="stroke" style="stroke: light-dark(rgb(37, 99, 235), rgb(105, 158, 255));"/><path d="M 287.76 290 L 279.76 294 L 279.76 286 Z" fill="#2563eb" stroke="#2563eb" stroke-width="2" stroke-miterlimit="10" pointer-events="all" style="fill: light-dark(rgb(37, 99, 235), rgb(105, 158, 255)); stroke: light-dark(rgb(37, 99, 235), rgb(105, 158, 255));"/></g></g><g data-cell-id="haedge2"><g><path d="M 465 365 L 465 534.76" fill="none" stroke="#64748b" stroke-width="2" stroke-miterlimit="10" stroke-dasharray="6 6" pointer-events="stroke" style="stroke: light-dark(rgb(100, 116, 139), rgb(126, 140, 159));"/><path d="M 465 542.76 L 461 534.76 L 469 534.76 Z" fill="#64748b" stroke="#64748b" stroke-width="2" stroke-miterlimit="10" pointer-events="all" style="fill: light-dark(rgb(100, 116, 139), rgb(126, 140, 159)); stroke: light-dark(rgb(100, 116, 139), rgb(126, 140, 159));"/></g></g><g data-cell-id="haedge3"><g><path d="M 570 365 L 570 455 L 660 455 L 770 455 L 770 524.76" fill="none" stroke="#64748b" stroke-width="2" stroke-miterlimit="10" stroke-dasharray="6 6" pointer-events="stroke" style="stroke: light-dark(rgb(100, 116, 139), rgb(126, 140, 159));"/><path d="M 770 532.76 L 766 524.76 L 774 524.76 Z" fill="#64748b" stroke="#64748b" stroke-width="2" stroke-miterlimit="10" pointer-events="all" style="fill: light-dark(rgb(100, 116, 139), rgb(126, 140, 159)); stroke: light-dark(rgb(100, 116, 139), rgb(126, 140, 159));"/></g></g><g data-cell-id="haedge4"><g><path d="M 640 290 L 829.76 290" fill="none" stroke="#d97706" stroke-width="2" stroke-miterlimit="10" pointer-events="stroke" style="stroke: light-dark(rgb(217, 119, 6), rgb(197, 113, 16));"/><path d="M 837.76 290 L 829.76 294 L 829.76 286 Z" fill="#d97706" stroke="#d97706" stroke-width="2" stroke-miterlimit="10" pointer-events="all" style="fill: light-dark(rgb(217, 119, 6), rgb(197, 113, 16)); stroke: light-dark(rgb(217, 119, 6), rgb(197, 113, 16));"/></g></g><g data-cell-id="hal1"><g transform="translate(0.5,0.5)"><rect x="240" y="195" width="130" height="24" fill="none" stroke="none" pointer-events="all"/></g><g><g><switch><foreignObject style="overflow: visible; text-align: left;" pointer-events="none" width="100%" height="100%" requiredFeatures="http://www.w3.org/TR/SVG11/feature#Extensibility"><div xmlns="http://www.w3.org/1999/xhtml" style="display: flex; align-items: unsafe center; justify-content: unsafe center; width: 1px; height: 1px; padding-top: 207px; margin-left: 305px;"><div style="box-sizing: border-box; font-size: 0; text-align: center; color: #1d4ed8; "><div style="display: inline-block; font-size: 13px; font-family: Arial; color: light-dark(#1d4ed8, #81abff); line-height: 1.2; pointer-events: all; font-weight: bold; white-space: nowrap; ">internal service</div></div></div></foreignObject><text x="305" y="211" fill="#1d4ed8" font-family="Arial" font-size="13px" text-anchor="middle" font-weight="bold">internal service</text></switch></g></g></g><g data-cell-id="hal2"><g transform="translate(0.5,0.5)"><rect x="410" y="490" width="190" height="24" fill="none" stroke="none" pointer-events="all"/></g><g><g><switch><foreignObject style="overflow: visible; text-align: left;" pointer-events="none" width="100%" height="100%" requiredFeatures="http://www.w3.org/TR/SVG11/feature#Extensibility"><div xmlns="http://www.w3.org/1999/xhtml" style="display: flex; align-items: unsafe center; justify-content: unsafe center; width: 1px; height: 1px; padding-top: 502px; margin-left: 505px;"><div style="box-sizing: border-box; font-size: 0; text-align: center; color: #475569; "><div style="display: inline-block; font-size: 13px; font-family: Arial; color: light-dark(#475569, #9ba7b8); line-height: 1.2; pointer-events: all; white-space: nowrap; ">encrypted state and HA lock</div></div></div></foreignObject><text x="505" y="506" fill="#475569" font-family="Arial" font-size="13px" text-anchor="middle">encrypted state and HA lock</text></switch></g></g></g><g data-cell-id="hal3"><g transform="translate(0.5,0.5)"><rect x="760" y="490" width="130" height="24" fill="none" stroke="none" pointer-events="all"/></g><g><g><switch><foreignObject style="overflow: visible; text-align: left;" pointer-events="none" width="100%" height="100%" requiredFeatures="http://www.w3.org/TR/SVG11/feature#Extensibility"><div xmlns="http://www.w3.org/1999/xhtml" style="display: flex; align-items: unsafe center; justify-content: unsafe center; width: 1px; height: 1px; padding-top: 502px; margin-left: 825px;"><div style="box-sizing: border-box; font-size: 0; text-align: center; color: #475569; "><div style="display: inline-block; font-size: 13px; font-family: Arial; color: light-dark(#475569, #9ba7b8); line-height: 1.2; pointer-events: all; white-space: nowrap; ">auto-unseal</div></div></div></foreignObject><text x="825" y="506" fill="#475569" font-family="Arial" font-size="13px" text-anchor="middle">auto-unseal</text></switch></g></g></g><g data-cell-id="hal4"><g transform="translate(0.5,0.5)"><rect x="870" y="195" width="160" height="24" fill="none" stroke="none" pointer-events="all"/></g><g><g><switch><foreignObject style="overflow: visible; text-align: left;" pointer-events="none" width="100%" height="100%" requiredFeatures="http://www.w3.org/TR/SVG11/feature#Extensibility"><div xmlns="http://www.w3.org/1999/xhtml" style="display: flex; align-items: unsafe center; justify-content: unsafe center; width: 1px; height: 1px; padding-top: 207px; margin-left: 950px;"><div style="box-sizing: border-box; font-size: 0; text-align: center; color: #b45309; "><div style="display: inline-block; font-size: 13px; font-family: Arial; color: light-dark(#b45309, #df8b4c); line-height: 1.2; pointer-events: all; font-weight: bold; white-space: nowrap; ">dynamic credentials</div></div></div></foreignObject><text x="950" y="211" fill="#b45309" font-family="Arial" font-size="13px" text-anchor="middle" font-weight="bold">dynamic credentials</text></switch></g></g></g><g data-cell-id="endpoint2"><g><rect x="10" y="235" width="220" height="110" rx="16.5" ry="16.5" fill="#eff6ff" stroke="#60a5fa" stroke-width="2" pointer-events="all" style="fill: light-dark(rgb(239, 246, 255), rgb(21, 27, 35)); stroke: light-dark(rgb(96, 165, 250), rgb(50, 110, 183));"/></g><g><g><switch><foreignObject style="overflow: visible; text-align: left;" pointer-events="none" width="100%" height="100%" requiredFeatures="http://www.w3.org/TR/SVG11/feature#Extensibility"><div xmlns="http://www.w3.org/1999/xhtml" style="display: flex; align-items: unsafe center; justify-content: unsafe center; width: 194px; height: 1px; padding-top: 290px; margin-left: 23px;"><div style="box-sizing: border-box; font-size: 0; text-align: center; color: #000000; "><div style="display: inline-block; font-size: 19px; font-family: Arial; color: light-dark(#000000, #ffffff); line-height: 1.2; pointer-events: all; font-weight: bold; white-space: normal; word-wrap: normal; ">Private OpenBao endpoint</div></div></div></foreignObject><text x="120" y="296" fill="light-dark(#000000, #ffffff)" font-family="Arial" font-size="19px" text-anchor="middle" font-weight="bold">Private OpenBao endpo...</text></switch></g></g></g><g data-cell-id="eks2"><g><rect x="290" y="215" width="350" height="150" rx="22.5" ry="22.5" fill="#ecfdf5" stroke="#10b981" stroke-width="2" pointer-events="all" style="fill: light-dark(rgb(236, 253, 245), rgb(13, 27, 21)); stroke: light-dark(rgb(16, 185, 129), rgb(2, 147, 99));"/></g><g><g><switch><foreignObject style="overflow: visible; text-align: left;" pointer-events="none" width="100%" height="100%" requiredFeatures="http://www.w3.org/TR/SVG11/feature#Extensibility"><div xmlns="http://www.w3.org/1999/xhtml" style="display: flex; align-items: unsafe center; justify-content: unsafe center; width: 316px; height: 1px; padding-top: 290px; margin-left: 307px;"><div style="box-sizing: border-box; font-size: 0; text-align: center; color: #000000; "><div style="display: inline-block; font-size: 21px; font-family: Arial; color: light-dark(#000000, #ffffff); line-height: 1.2; pointer-events: all; font-weight: bold; white-space: normal; word-wrap: normal; ">OpenBao on Amazon EKS<br /><font style="font-size:15px;font-weight:normal">3 replicas across failure domains</font></div></div></div></foreignObject><text x="465" y="296" fill="light-dark(#000000, #ffffff)" font-family="Arial" font-size="21px" text-anchor="middle" font-weight="bold">OpenBao on Amazon EKS...</text></switch></g></g></g><g data-cell-id="target2"><g><rect x="840" y="235" width="250" height="110" rx="16.5" ry="16.5" fill="#fff7ed" stroke="#fb923c" stroke-width="2" pointer-events="all" style="fill: light-dark(rgb(255, 247, 237), rgb(30, 23, 15)); stroke: light-dark(rgb(251, 146, 60), rgb(175, 84, 10));"/></g><g><g><switch><foreignObject style="overflow: visible; text-align: left;" pointer-events="none" width="100%" height="100%" requiredFeatures="http://www.w3.org/TR/SVG11/feature#Extensibility"><div xmlns="http://www.w3.org/1999/xhtml" style="display: flex; align-items: unsafe center; justify-content: unsafe center; width: 216px; height: 1px; padding-top: 290px; margin-left: 857px;"><div style="box-sizing: border-box; font-size: 0; text-align: center; color: #000000; "><div style="display: inline-block; font-size: 19px; font-family: Arial; color: light-dark(#000000, #ffffff); line-height: 1.2; pointer-events: all; font-weight: bold; white-space: normal; word-wrap: normal; ">Aurora PostgreSQL targets<br /><font style="font-size:15px;font-weight:normal">approved private network path</font></div></div></div></foreignObject><text x="965" y="296" fill="light-dark(#000000, #ffffff)" font-family="Arial" font-size="19px" text-anchor="middle" font-weight="bold">Aurora PostgreSQL targe...</text></switch></g></g></g><g data-cell-id="store2"><g><rect x="290" y="545" width="350" height="100" rx="15" ry="15" fill="#f8fafc" stroke="#94a3b8" stroke-width="2" pointer-events="all" style="fill: light-dark(rgb(248, 250, 252), rgb(21, 23, 25)); stroke: light-dark(rgb(148, 163, 184), rgb(87, 100, 118));"/></g><g><g><switch><foreignObject style="overflow: visible; text-align: left;" pointer-events="none" width="100%" height="100%" requiredFeatures="http://www.w3.org/TR/SVG11/feature#Extensibility"><div xmlns="http://www.w3.org/1999/xhtml" style="display: flex; align-items: unsafe center; justify-content: unsafe center; width: 320px; height: 1px; padding-top: 595px; margin-left: 305px;"><div style="box-sizing: border-box; font-size: 0; text-align: center; color: #000000; "><div style="display: inline-block; font-size: 18px; font-family: Arial; color: light-dark(#000000, #ffffff); line-height: 1.2; pointer-events: all; font-weight: bold; white-space: normal; word-wrap: normal; ">Dedicated Aurora PostgreSQL<br /><font style="font-size:15px;font-weight:normal">OpenBao storage backend<br />HA enabled, TLS verified</font></div></div></div></foreignObject><text x="465" y="600" fill="light-dark(#000000, #ffffff)" font-family="Arial" font-size="18px" text-anchor="middle" font-weight="bold">Dedicated Aurora PostgreSQL...</text></switch></g></g></g><g data-cell-id="kms2"><g transform="translate(0.5,0.5)"><path d="M 700 535 L 840 535 L 840 675 L 700 675 Z" fill="#ffffff" stroke="none" pointer-events="all" style="fill: var(--ge-adaptive-bg, #ffffff);"/><path d="M 795.84 631.45 L 810.92 631.45 L 810.92 627.14 L 795.84 627.14 Z M 776.46 631.45 L 791.54 631.45 L 791.54 627.14 L 776.46 627.14 Z M 757.07 631.45 L 772.15 631.45 L 772.15 627.14 L 757.07 627.14 Z M 780.77 614.22 C 780.77 611.84 782.7 609.91 785.07 609.91 C 787.45 609.91 789.38 611.84 789.38 614.22 C 789.38 616.6 787.45 618.53 785.07 618.53 C 782.7 618.53 780.77 616.6 780.77 614.22 Z M 793.69 614.22 C 793.69 609.47 789.83 605.6 785.07 605.6 C 780.32 605.6 776.46 609.47 776.46 614.22 C 776.46 618.97 780.32 622.84 785.07 622.84 C 789.83 622.84 793.69 618.97 793.69 614.22 Z M 763.53 609.91 C 765.91 609.91 767.84 611.84 767.84 614.22 C 767.84 616.6 765.91 618.53 763.53 618.53 C 761.16 618.53 759.23 616.6 759.23 614.22 C 759.23 611.84 761.16 609.91 763.53 609.91 Z M 763.53 622.84 C 768.29 622.84 772.15 618.97 772.15 614.22 C 772.15 609.47 768.29 605.6 763.53 605.6 C 758.78 605.6 754.92 609.47 754.92 614.22 C 754.92 618.97 758.78 622.84 763.53 622.84 Z M 826 590.53 L 826 640.07 C 826 641.26 825.04 642.22 823.85 642.22 L 757.07 642.22 L 757.07 637.91 L 821.69 637.91 L 821.69 592.68 L 774.3 592.68 L 774.3 588.37 L 823.85 588.37 C 825.04 588.37 826 589.34 826 590.53 Z M 749.96 601.4 C 749.07 601.68 748.46 602.51 748.46 603.45 L 748.46 648.77 L 743.29 653.2 L 737.69 646.8 L 737.69 641.14 C 737.69 640.57 737.46 640.02 737.05 639.62 L 732.12 634.68 L 737.05 629.74 C 737.46 629.34 737.69 628.79 737.69 628.22 L 737.69 623.91 C 737.69 623.34 737.46 622.79 737.05 622.39 L 732.12 617.45 L 737.05 612.51 C 737.46 612.11 737.69 611.56 737.69 610.99 L 737.69 603.47 C 737.69 602.53 737.08 601.7 736.18 601.42 C 725.11 597.91 718.56 586.51 720.96 574.91 C 722.68 566.56 729.11 559.86 737.33 557.84 C 744.33 556.13 751.5 557.63 757.02 561.95 C 762.53 566.27 765.69 572.76 765.69 579.75 C 765.69 589.56 759.22 598.46 749.96 601.4 Z M 770 579.75 C 770 571.43 766.23 563.71 759.68 558.56 C 753.12 553.41 744.6 551.62 736.3 553.66 C 726.48 556.07 718.8 564.07 716.74 574.04 L 716.74 574.04 C 714 587.28 721.11 600.3 733.38 605 L 733.38 610.1 L 727.55 615.93 C 726.71 616.77 726.71 618.13 727.55 618.97 L 733.38 624.8 L 733.38 627.33 L 727.55 633.16 C 726.71 634 726.71 635.36 727.55 636.21 L 733.38 642.04 L 733.38 647.61 C 733.38 648.13 733.57 648.63 733.91 649.03 L 741.45 657.64 C 741.88 658.13 742.47 658.38 743.07 658.38 C 743.57 658.38 744.07 658.21 744.47 657.86 L 752.01 651.4 C 752.49 650.99 752.76 650.39 752.76 649.76 L 752.76 604.97 C 762.99 601.03 770 590.88 770 579.75 Z M 743.07 584.86 C 740.1 584.86 737.69 582.45 737.69 579.47 C 737.69 576.51 740.1 574.09 743.07 574.09 C 746.04 574.09 748.46 576.51 748.46 579.47 C 748.46 582.45 746.04 584.86 743.07 584.86 Z M 743.07 569.78 C 737.73 569.78 733.38 574.13 733.38 579.47 C 733.38 584.82 737.73 589.17 743.07 589.17 C 748.42 589.17 752.76 584.82 752.76 579.47 C 752.76 574.13 748.42 569.78 743.07 569.78 Z" fill="#000000" stroke="none" pointer-events="all" style="fill: light-dark(rgb(0, 0, 0), rgb(255, 255, 255));"/></g><g><g><switch><foreignObject style="overflow: visible; text-align: left;" pointer-events="none" width="100%" height="100%" requiredFeatures="http://www.w3.org/TR/SVG11/feature#Extensibility"><div xmlns="http://www.w3.org/1999/xhtml" style="display: flex; align-items: unsafe flex-start; justify-content: unsafe center; width: 1px; height: 1px; padding-top: 690px; margin-left: 770px;"><div style="box-sizing: border-box; font-size: 0; text-align: center; color: #000000; "><div style="display: inline-block; font-size: 16px; font-family: Arial; color: light-dark(#000000, #ffffff); line-height: 1.2; pointer-events: all; font-weight: bold; white-space: nowrap; ">AWS KMS<br /><font style="font-size:14px;font-weight:normal">dedicated key</font></div></div></div></foreignObject><text x="770" y="706" fill="light-dark(#000000, #ffffff)" font-family="Arial" font-size="16px" text-anchor="middle" font-weight="bold">AWS KMS...</text></switch></g></g></g></g></g></g><switch><g requiredFeatures="http://www.w3.org/TR/SVG11/feature#Extensibility"/><a transform="translate(0,-5)" xlink:href="https://www.drawio.com/doc/faq/svg-export-text-problems" target="_blank"><text text-anchor="middle" font-size="10px" x="50%" y="100%">Text is not SVG - cannot display</text></a></switch></svg>